<svg xmlns="http://www.w3.org/2000/svg" width="24" height="24" viewBox="0 0 24 24" fill="none" stroke="currentColor" stroke-width="2" stroke-linecap="round" stroke-linejoin="round" class="lucide lucide-book-open w-4 h-4 sm:w-6 sm:h-6 text-primary-foreground" data-lov-id="src\pages\Index.tsx:62:18" data-lov-name="BookOpen" data-component-path="src\pages\Index.tsx" data-component-line="62" data-component-file="Index.tsx" data-component-name="BookOpen" data-component-content="%7B%22className%22%3A%22w-4%20h-4%20sm%3Aw-6%20sm%3Ah-6%20text-primary-foreground%22%7D"><path d="M12 7v14"></path><path d="M3 18a1 1 0 0 1-1-1V4a1 1 0 0 1 1-1h5a4 4 0 0 1 4 4 4 4 0 0 1 4-4h5a1 1 0 0 1 1 1v13a1 1 0 0 1-1 1h-6a3 3 0 0 0-3 3 3 3 0 0 0-3-3z"></path></svg>